# xmcd CD database file generated by freedbAccess_ocx
#
# Track frame offsets:
#       150
#       11400
#       21900
#       36750
#       50137
#       64621
#       76232
#       86988
#       98948
#       113890
#       125346
#       138778
#       148028
#       158431
#       170982
#       183454
#       194130
#       204003
#
# Disc length: 2826 seconds
#
# Revision: 0
# Processed by: cddbd v1.4PL0 Copyright (c) Steve Scherf et al.
# Submitted via: CDnGo 2.00
#
DISCID=f90b0812
DTITLE=Rangers - 1970
DYEAR=1997
DGENRE=Country
TTITLE0=Skatule
TTITLE1=Vim, vim
TTITLE2=Lily Langtry
TTITLE3=Rocky Top
TTITLE4=Rakosi
TTITLE5=O.K.
TTITLE6=Ja prochazel se jednou
TTITLE7=6 svicek
TTITLE8=Tvym snum zlym
TTITLE9=Mysli na to, ze prijdu
TTITLE10=Pole s bavlnou
TTITLE11=Kral silnic
TTITLE12=900 mil
TTITLE13=Kdo ma pravo
TTITLE14=Kingston Town
TTITLE15=Napis kridou
TTITLE16=Tece voda
TTITLE17=Zlate zvony
EXTD=
EXTT0=
EXTT1=
EXTT2=
EXTT3=
EXTT4=
EXTT5=
EXTT6=
EXTT7=
EXTT8=
EXTT9=
EXTT10=
EXTT11=
EXTT12=
EXTT13=
EXTT14=
EXTT15=
EXTT16=
EXTT17=
PLAYORDER=
